# AST/ASF file generated using VICON BodyLanguage
# -----------------------------------------------
:version 1.10
:name VICON
:units
  mass 1.0
  length 0.45
  angle deg
:documentation
   .ast/.asf automatically generated from VICON data using
   VICON BodyBuilder and BodyLanguage model FoxedUp or BRILLIANT.MOD
:root
   order TX TY TZ RX RY RZ
   axis XYZ
   position 0 0 0  
   orientation 0 0 0 
:bonedata
  begin
     id 1 
     name lhipjoint
     direction 0.578396 -0.714046 0.394458 
     length 2.21935 
     axis 0 0 0  XYZ
  end
  begin
     id 2 
     name lfemur
     direction 0.34202 -0.939693 0  
     length 6.39105  
     axis 0 0 20  XYZ
    dof rx ry rz
    limits (-160.0 20.0)
           (-70.0 70.0)
           (-60.0 70.0)
  end
  begin
     id 3 
     name ltibia
     direction 0.34202 -0.939693 0   
     length 6.99037   
     axis 0 0 20   XYZ
    dof rx
    limits (-10.0 170.0)
  end
  begin
     id 4 
     name lfoot
     direction 0.0582372 -0.160005 0.985397   
     length 2.06111   
     axis -90 7.62852e-016 20   XYZ
    dof rx rz
    limits (-45.0 90.0)
           (-70.0 20.0)
  end
  begin
     id 5 
     name ltoes
     direction 1.53556e-011 -4.21875e-011 1   
     length 1.04074   
     axis -90 7.62852e-016 20   XYZ
    dof rx
    limits (-90.0 20.0)
  end
  begin
     id 6 
     name rhipjoint
     direction -0.558179 -0.726269 0.40121   
     length 2.182  
     axis 0 0 0  XYZ 
  end
  begin
     id 7 
     name rfemur
     direction -0.34202 -0.939693 0   
     length 6.51172   
     axis 0 0 -20   XYZ
    dof rx ry rz
    limits (-160.0 20.0)
           (-70.0 70.0)
           (-70.0 60.0)
  end
  begin
     id 8 
     name rtibia
     direction -0.34202 -0.939693 0   
     length 7.02607   
     axis 0 0 -20   XYZ
    dof rx
    limits (-10.0 170.0)
 end
 begin
     id 9 
     name rfoot
     direction -0.0788856 -0.216737 0.973038   
     length 1.96734  
     axis -90 -7.62852e-016 -20   XYZ
    dof rx rz
    limits (-45.0 90.0)
           (-20.0 70.0)
  end
  begin
     id 10 
     name rtoes
     direction -1.53567e-011 -4.21783e-011 1   
     length 0.990825   
     axis -90 -7.62852e-016 -20   XYZ
    dof rx
    limits (-90.0 20.0)
  end
  begin
     id 11 
     name lowerback
     direction 0.00668177 0.999323 -0.0361741   
     length 1.7655   
     axis 0 0 0   XYZ
    dof rx ry rz
    limits (-20.0 45.0)
           (-30.0 30.0)
           (-30.0 30.0)
  end
  begin
     id 12 
     name upperback
     direction -0.00222086 0.99851 0.0545167   
     length 1.74912   
     axis 0 0 0   XYZ
    dof rx ry rz
    limits (-20.0 45.0)
           (-30.0 30.0)
           (-30.0 30.0)
  end
  begin
     id 13 
     name thorax
     direction -0.00733971 0.997496 0.0703443   
     length 1.75715   
     axis 0 0 0   XYZ
    dof rx ry rz
    limits (-20.0 45.0)
           (-30.0 30.0)
           (-30.0 30.0)
  end
  begin
     id 14 
     name lowerneck
     direction 0.0279797 0.994795 0.0979765   
     length 1.46939   
     axis 0 0 0   XYZ
    dof rx ry rz
    limits (-20.0 45.0)
           (-30.0 30.0)
           (-30.0 30.0)
  end
  begin
     id 15 
     name upperneck
     direction 0.00339187 0.976776 -0.214238   
     length 1.48018   
     axis 0 0 0   XYZ
    dof rx ry rz
    limits (-20.0 45.0)
           (-30.0 30.0)
           (-30.0 30.0)
  end
  begin
     id 16
     name head
     direction -0.00263506 0.996603 -0.0823096  
     length 1.4976  
     axis 0 0 0   XYZ
    dof rx ry rz
    limits (-20.0 45.0)
           (-30.0 30.0)
           (-30.0 30.0)
  end
  begin
     id 17 
     name lclavicle
     direction 0.894044 0.44508 -0.0508781  
     length 3.03024  
     axis 0 0 0   XYZ
    dof ry rz
    limits (-20.0 10.0)
           (0.0 20.0)
  end
  begin
     id 18 
     name lhumerus
     direction 1 -4.48961e-011 -2.39475e-018   
     length 4.4661   
     axis 180 -30 -90   XYZ
    dof rx ry rz
    limits (-60.0 90.0)
           (-90.0 90.0)
           (-90.0 90.0)
  end
  begin
     id 19
     name lradius
     direction 1 -4.48961e-011 9.29328e-028   
     length 3.41414   
     axis 180 -30 -90   XYZ
    dof rx
    limits (-10.0 170.0)
  end
  begin
     id 20
     name lwrist
     direction 1 -4.48985e-011 1.53461e-026   
     length 1.70707   
     axis -1.09697e-014 90 90   XYZ
    dof ry
    limits (-180.0 0.0)
 end
  begin
     id 21 
     name lhand
     direction 1 -4.48966e-011 3.06923e-026   
     length 0.328298   
     axis -1.95843e-014 90 90   XYZ
    dof rx rz
    limits (-90.0 90.0)
           (-45.0 45.0)
  end
  begin
     id 22 
     name lfingers
     direction 1 -4.48893e-011 6.13845e-026   
     length 0.264682   
     axis -3.91686e-014 90 90   XYZ
    dof rx
    limits (0.0 90.0)
  end
  begin
     id 23
     name lthumb
     direction 0.707107 -6.34876e-011 0.707107   
     length 0.380032   
     axis -90 45 2.85299e-015   XYZ
    dof rx rz
    limits (-45.0 45.0)
           (-45.0 45.0)
  end
  begin
     id 24 
     name rclavicle
     direction -0.936955 0.347862 -0.0332887   
     length 3.26927  
     axis 0 0 0   XYZ 
    dof ry rz
    limits (-10.0 20.0)
           (-20.0 0.0)
  end
  begin
     id 25 
     name rhumerus
     direction -1 -4.4896e-011 1.78637e-018  
     length 4.40431   
     axis 180 30 90   XYZ
    dof rx ry rz
    limits (-90.0 60.0)
           (-90.0 90.0)
           (-90.0 90.0)
  end
  begin
     id 26 
     name rradius
     direction -1 -4.48955e-011 9.34036e-027   
     length 3.04688   
     axis 180 30 90   XYZ
    dof rx
    limits (-10.0 170.0)
  end
  begin
     id 27 
     name rwrist
     direction -1 -4.49011e-011 1.53461e-026   
     length 1.52344   
     axis -1.09697e-014 -90 -90   XYZ
    dof ry
    limits (-180.0 0.0)
  end
  begin
     id 28
     name rhand
     direction -1 -4.48834e-011 3.06923e-026   
     length 0.500489   
     axis -1.95843e-014 -90 -90   XYZ
    dof rx rz
    limits (-90.0 90.0)
           (-45.0 45.0)
  end
  begin
     id 29
     name rfingers
     direction -1 -4.48967e-011 6.13845e-026   
     length 0.403507   
     axis -3.91686e-014 -90 -90   XYZ
    dof rx
    limits (0.0 90.0)
  end
  begin
     id 30
     name rthumb
     direction -0.707107 -6.34826e-011 0.707107   
     length 0.579358   
     axis -90 -45 -2.85299e-015   XYZ
    dof rx rz
    limits (-45.0 45.0)
           (-45.0 45.0)
  end
:hierarchy
  begin
    root lhipjoint rhipjoint lowerback
    lhipjoint lfemur
    lfemur ltibia
    ltibia lfoot
    lfoot ltoes
    rhipjoint rfemur
    rfemur rtibia
    rtibia rfoot
    rfoot rtoes
    lowerback upperback
    upperback thorax
    thorax lowerneck lclavicle rclavicle
    lowerneck upperneck
    upperneck head
    lclavicle lhumerus
    lhumerus lradius
    lradius lwrist
    lwrist lhand lthumb
    lhand lfingers
    rclavicle rhumerus
    rhumerus rradius
    rradius rwrist
    rwrist rhand rthumb
    rhand rfingers
  end

#!OML:ASF H:\IndianDance\Patient Classification 1\Patient 1\Session 1\dancer.ASF
:FULLY-SPECIFIED
:DEGREES
1283
root -6.71027 14.1438 2.3548 -172.034 0.689166 -179.601
lowerback 11.7037 2.43989 5.7888
upperback -6.99867 4.24769 -2.89221
thorax -13.7591 1.36415 -7.51516
lowerneck -8.26004 -13.0367 -9.6987
upperneck 8.131 -17.3104 8.06517
head 5.32147 -8.41544 2.57761
rclavicle 3.76697e-014 -7.15625e-015
rhumerus 28.5486 -5.76442 -2.1632
rradius 29.8961
rwrist 30.0691
rhand -57.7363 64.9088
rfingers 7.12502
rthumb -29.9943 37.3205
lclavicle 3.76697e-014 -7.15625e-015
lhumerus -19.6006 -11.7668 12.2124
lradius 40.4636
lwrist 19.5746
lhand 9.4392 17.7664
lfingers 7.12502
lthumb 34.5942 44.4163
rfemur -62.1295 -32.2776 29.0465
rtibia 76.6575
rfoot -4.08661 -2.52434
rtoes 15.6016
lfemur -33.6574 24.998 -32.9235
ltibia 59.5551
lfoot -33.8506 16.478
ltoes 14.1939
1284
root -6.70437 14.1331 2.35292 -171.981 0.596598 -179.684
lowerback 11.6061 2.41925 5.79312
upperback -7.08461 4.22151 -2.96972
thorax -13.7999 1.34763 -7.59937
lowerneck -8.32932 -12.9896 -9.6287
upperneck 8.16544 -17.2262 7.90346
head 5.3152 -8.37747 2.52521
rclavicle -2.56681e-014 2.26615e-014
rhumerus 28.7534 -6.15612 -1.86143
rradius 30.1354
rwrist 30.2733
rhand -57.6782 65.2791
rfingers 7.12502
rthumb -29.9389 37.6807
lclavicle -2.56681e-014 2.26615e-014
lhumerus -19.4083 -11.7987 12.1048
lradius 40.3573
lwrist 19.4639
lhand 9.68606 17.7695
lfingers 7.12502
lthumb 34.8285 44.3654
rfemur -60.9817 -31.5698 28.2235
rtibia 74.479
rfoot -6.03365 -4.7843
rtoes 11.6372
lfemur -33.7971 25.1076 -33.0171
ltibia 59.6943
lfoot -33.8137 16.3517
ltoes 14.0207
1285
root -6.69878 14.129 2.35048 -171.913 0.471494 -179.755
lowerback 11.4778 2.39251 5.81026
upperback -7.16777 4.18879 -3.04028
thorax -13.8193 1.3289 -7.67881
lowerneck -8.40251 -12.9465 -9.56007
upperneck 8.19801 -17.1472 7.74499
head 5.31007 -8.34194 2.47307
rclavicle -2.36305e-014 -8.34896e-015
rhumerus 29.0042 -6.60479 -1.64252
rradius 30.3393
rwrist 30.4975
rhand -57.6324 65.699
rfingers 7.12502
rthumb -29.8951 38.0928
lclavicle -2.36305e-014 -8.34896e-015
lhumerus -19.2196 -11.8126 12.0218
lradius 40.2447
lwrist 19.3674
lhand 9.91315 17.7974
lfingers 7.12502
lthumb 35.044 44.3432
rfemur -59.7216 -30.8685 27.4352
rtibia 71.9861
rfoot -7.48512 -7.30862
rtoes 7.17263
lfemur -33.9201 25.1755 -33.0991
ltibia 59.7924
lfoot -33.7592 16.2553
ltoes 13.8072
1286
root -6.69307 14.1264 2.34761 -171.833 0.31616 -179.808
lowerback 11.3207 2.35976 5.84613
upperback -7.24692 4.15076 -3.10068
thorax -13.8167 1.30811 -7.75347
lowerneck -8.47478 -12.9054 -9.49129
upperneck 8.22333 -17.0703 7.58533
head 5.30276 -8.30758 2.42059
rclavicle -2.20651e-014 -5.56597e-015
rhumerus 29.2597 -7.07752 -1.45265
rradius 30.5394
rwrist 30.6907
rhand -57.5834 66.0982
rfingers 7.12502
rthumb -29.8484 38.4836
lclavicle -2.20651e-014 -5.56597e-015
lhumerus -19.041 -11.8225 11.9672
lradius 40.131
lwrist 19.3038
lhand 10.1013 17.854
lfingers 7.12502
lthumb 35.2224 44.3579
rfemur -58.4724 -30.2366 26.7461
rtibia 69.4287
rfoot -8.55357 -9.71271
rtoes 3.98098
lfemur -34.0413 25.2003 -33.1624
ltibia 59.8724
lfoot -33.7197 16.146
ltoes 13.6966
1287
root -6.6876 14.1252 2.34465 -171.747 0.131427 -179.847
lowerback 11.143 2.32008 5.90033
upperback -7.32027 4.10592 -3.15267
thorax -13.7954 1.28417 -7.82543
lowerneck -8.54763 -12.8636 -9.42409
upperneck 8.24513 -16.9929 7.42976
head 5.29509 -8.27288 2.36961
rclavicle 1.11816e-015 2.3059e-014
rhumerus 29.5282 -7.56498 -1.28895
rradius 30.7319
rwrist 30.856
rhand -57.538 66.4626
rfingers 7.12502
rthumb -29.8051 38.8403
lclavicle 1.11816e-015 2.3059e-014
lhumerus -18.8725 -11.844 11.9376
lradius 40.0194
lwrist 19.2804
lhand 10.2418 17.9417
lfingers 7.12502
lthumb 35.3556 44.414
rfemur -57.3251 -29.7254 26.1954
rtibia 67.0174
rfoot -9.48103 -11.6669
rtoes 2.98991
lfemur -34.1471 25.1801 -33.2074
ltibia 59.9174
lfoot -33.6913 16.0203
ltoes 13.7097
1288
root -6.68243 14.125 2.3421 -171.665 -0.0809414 -179.882
lowerback 10.9628 2.64884 6.03281
upperback -7.36825 3.96784 -3.23705
thorax -13.7233 0.960384 -7.89199
lowerneck -8.62342 -12.8216 -9.34736
upperneck 8.2698 -16.9162 7.27093
head 5.28795 -8.23846 2.316
rclavicle 2.31087e-015 -2.06736e-014
rhumerus 29.7894 -8.04329 -1.12498
rradius 30.9307
rwrist 30.9578
rhand -57.4841 66.7997
rfingers 7.12502
rthumb -29.7536 39.1681
lclavicle 2.31087e-015 -2.06736e-014
lhumerus -18.7116 -11.889 11.9299
lradius 39.9118
lwrist 19.2848
lhand 10.3511 18.0537
lfingers 7.12502
lthumb 35.4593 44.5012
rfemur -56.3754 -29.3841 25.7955
rtibia 64.9761
rfoot -10.445 -13.0444
rtoes 4.24388
lfemur -34.2313 25.1138 -33.2436
ltibia 59.9367
lfoot -33.6691 15.9018
ltoes 13.7748
1289
root -6.67763 14.1258 2.34049 -171.6 -0.312635 -179.92
lowerback 10.7942 2.61324 6.09084
upperback -7.42453 3.90566 -3.28309
thorax -13.69 0.919332 -7.95357
lowerneck -8.69561 -12.7776 -9.26066
upperneck 8.28765 -16.8381 7.11032
head 5.27718 -8.20347 2.2611
rclavicle -4.45029e-014 -1.74931e-014
rhumerus 30.128 -8.52739 -1.00358
rradius 31.0689
rwrist 31.0508
rhand -57.4273 67.0473
rfingers 7.12502
rthumb -29.6994 39.406
lclavicle -4.45029e-014 -1.74931e-014
lhumerus -18.5526 -11.9534 11.9446
lradius 39.8074
lwrist 19.2963
lhand 10.4445 18.1795
lfingers 7.12502
lthumb 35.5479 44.6058
rfemur -55.6801 -29.2345 25.5417
rtibia 63.4491
rfoot -11.4372 -13.8121
rtoes 6.83758
lfemur -34.2801 25.0044 -33.2725
ltibia 59.9282
lfoot -33.6485 15.7953
ltoes 13.874
1290
root -6.67362 14.1273 2.34029 -171.557 -0.552872 -179.969
lowerback 10.6539 2.56809 6.14057
upperback -7.47104 3.8322 -3.32432
thorax -13.6659 0.874177 -8.00487
lowerneck -8.76679 -12.7242 -9.16595
upperneck 8.29818 -16.7478 6.94743
head 5.26235 -8.16258 2.20609
rclavicle 3.1234e-014 3.33958e-014
rhumerus 30.5445 -9.04057 -0.952136
rradius 31.1724
rwrist 31.1642
rhand -57.3687 67.2172
rfingers 7.12502
rthumb -29.6434 39.5659
lclavicle 3.1234e-014 3.33958e-014
lhumerus -18.4175 -12.025 11.9804
lradius 39.7086
lwrist 19.3
lhand 10.5352 18.3062
lfingers 7.12502
lthumb 35.6338 44.7118
rfemur -55.2584 -29.2641 25.3971
rtibia 62.4833
rfoot -12.3172 -14.0262
rtoes 9.72784
lfemur -34.2887 24.8554 -33.3026
ltibia 59.8931
lfoot -33.631 15.714
ltoes 13.9786
1291
root -6.6706 14.1285 2.3418 -171.54 -0.785468 -180.03
lowerback 10.5524 2.52372 6.18185
upperback -7.50811 3.76148 -3.36743
thorax -13.655 0.830882 -8.05709
lowerneck -8.83628 -12.6689 -9.04822
upperneck 8.3052 -16.6574 6.77706
head 5.24381 -8.12165 2.14597
rclavicle -2.95692e-014 -8.34896e-015
rhumerus 31.0256 -9.58955 -0.980252
rradius 31.238
rwrist 31.2965
rhand -57.3173 67.3705
rfingers 7.12502
rthumb -29.5944 39.7106
lclavicle -2.95692e-014 -8.34896e-015
lhumerus -18.2844 -12.0963 12.035
lradius 39.6168
lwrist 19.2879
lhand 10.6402 18.4299
lfingers 7.12502
lthumb 35.7333 44.8115
rfemur -55.083 -29.4316 25.3186
rtibia 62.0264
rfoot -12.9167 -13.8712
rtoes 12.0604
lfemur -34.2598 24.6833 -33.3373
ltibia 59.8376
lfoot -33.607 15.6525
ltoes 14.0992
1292
root -6.66872 14.1291 2.34503 -171.549 -0.995363 -180.095
lowerback 10.4913 2.47978 6.21928
upperback -7.53675 3.69485 -3.40665
thorax -13.6592 0.789928 -8.10663
lowerneck -8.90527 -12.6059 -8.91351
upperneck 8.30683 -16.5576 6.5968
head 5.2208 -8.07629 2.08186
rclavicle -3.21037e-014 -3.57812e-015
rhumerus 31.5863 -10.1841 -1.10585
rradius 31.2747
rwrist 31.4645
rhand -57.2776 67.5202
rfingers 7.12502
rthumb -29.5565 39.8535
lclavicle -3.21037e-014 -3.57812e-015
lhumerus -18.1744 -12.1489 12.1124
lradius 39.5347
lwrist 19.2655
lhand 10.7728 18.5496
lfingers 7.12502
lthumb 35.859 44.9006
rfemur -55.0868 -29.6826 25.2655
rtibia 61.9411
rfoot -13.1601 -13.5455
rtoes 13.3252
lfemur -34.2018 24.5061 -33.3761
ltibia 59.7687
lfoot -33.5784 15.6298
ltoes 14.1747
